<svg width="382" height="139" viewBox="0 0 382 139" fill="none" xmlns="http://www.w3.org/2000/svg">
  <g clip-path="url(#clip0)">
    <path d="M162.271 66.7543H145.356V42.8902C145.356 34.2272 138.349 27.1988 129.712 27.1988C121.076 27.1988 114.069 34.2272 114.069 42.8902V66.7543H97.154V42.8902C97.154 24.8777 111.755 10.1997 129.745 10.1997C147.735 10.1997 162.336 24.8451 162.336 42.8902V66.7543H162.271Z" fill="#5467F5"/>
    <path d="M162.271 66.7543H145.356V42.8902C145.356 34.2272 138.349 27.1988 129.712 27.1988C121.076 27.1988 114.069 34.2272 114.069 42.8902V66.7543H97.154V42.8902C97.154 24.8777 111.755 10.1997 129.745 10.1997C147.735 10.1997 162.336 24.8451 162.336 42.8902V66.7543H162.271Z" fill="url(#paint0_linear)"/>
    <path d="M173.71 0.294434H94.6119V17.2608H173.71V0.294434Z" fill="#5467F5"/>
    <path d="M68.7346 66.7542H33.1125C14.8615 66.7542 0 51.8473 0 33.5407C0 15.234 14.8615 0.294434 33.1125 0.294434H55.5352V17.2608H33.1125C24.1826 17.2608 16.9148 24.5508 16.9148 33.508C16.9148 42.4652 24.1826 49.7552 33.1125 49.7552H68.7346V66.7542Z" fill="#5467F5"/>
    <path d="M71.8308 49.7876H33.1125V66.754H71.8308V49.7876Z" fill="url(#paint1_linear)"/>
    <path d="M88.7781 17.2935H79.8155C78.9681 17.2935 78.3163 17.98 78.3163 18.7973H61.4016C61.4016 8.59782 69.6797 0.294434 79.8481 0.294434H88.8106V17.2935H88.7781Z" fill="#5467F5"/>
    <path d="M78.3163 18.1433V66.7541H61.4016V18.1433H78.3163Z" fill="#5467F5"/>
    <path d="M135.774 91.0434V120.498C135.774 121.348 136.459 122.001 137.274 122.001V138.968C127.105 138.968 118.827 130.664 118.827 120.465V91.0107C118.827 81.3343 126.323 73.4232 135.742 72.6387V91.0434H135.774Z" fill="#5467F5"/>
    <path d="M135.774 91.0434V120.498C135.774 121.348 136.459 122.001 137.274 122.001V138.51C127.105 138.51 118.827 130.664 118.827 120.465V91.0107C118.827 81.3343 126.323 73.4232 135.742 72.6387V91.0434H135.774Z" fill="url(#paint2_linear)"/>
    <path d="M137.209 122.034H166.573C167.421 122.034 168.072 121.348 168.072 120.53H184.987C184.987 130.73 176.709 139.033 166.541 139.033H137.209C127.562 139.033 119.707 131.514 118.892 122.067H137.209V122.034Z" fill="#5467F5"/>
    <path d="M137.209 122.034H166.573C167.421 122.034 168.072 121.348 168.072 120.53H184.075C184.075 130.73 176.742 139.033 166.573 139.033H137.209C127.562 139.033 119.707 131.514 118.892 122.067H137.209V122.034Z" fill="url(#paint3_linear)"/>
    <path d="M168.105 120.563V91.1091C168.105 90.2591 167.42 89.6053 166.606 89.6053V72.6389C176.774 72.6389 185.052 80.9423 185.052 91.1417V120.596C185.052 130.272 177.556 138.151 168.137 138.968V120.563H168.105Z" fill="#5467F5"/>
    <path d="M168.105 120.563V91.109C168.105 90.2591 167.42 89.6052 166.606 89.6052V73.5542C176.774 73.5542 185.052 80.9096 185.052 91.109V120.563C185.052 130.24 177.556 138.118 168.137 138.935V120.563H168.105Z" fill="url(#paint4_linear)"/>
    <path d="M166.638 89.5726H137.273C136.426 89.5726 135.774 90.2591 135.774 91.0763H118.859C118.859 80.8769 127.137 72.5735 137.306 72.5735H166.67C176.317 72.5735 184.172 80.0923 184.986 89.5399H166.638V89.5726Z" fill="#5467F5"/>
    <path d="M166.638 89.5726H137.274C136.426 89.5726 135.774 90.2591 135.774 91.0763H119.772C119.772 80.8769 127.105 72.5735 137.274 72.5735H166.638C176.285 72.5735 184.14 80.0923 184.954 89.5399H166.638V89.5726Z" fill="url(#paint5_linear)"/>
    <path d="M118.827 93.626V91.0434C118.827 81.3671 126.323 73.456 135.742 72.6714V91.0434" fill="#5467F5"/>
    <path d="M173.873 0.425293H94.7749V17.3917H173.873V0.425293Z" fill="url(#paint6_linear)"/>
    <path d="M185.02 0.294434H168.105V66.7542H185.02V0.294434Z" fill="#5467F5"/>
    <path d="M205.258 53.6453C204.541 53.6453 203.954 53.0569 203.954 52.305V0.327124C203.954 0.294434 203.922 0.294434 203.922 0.294434H191.635C191.602 0.294434 191.602 0.327124 191.602 0.327124V53.6126C191.602 55.8029 192.124 57.8951 193.069 59.6931C193.199 59.9546 193.362 60.2161 193.525 60.4776C194.014 61.2622 194.568 62.0141 195.22 62.6679C197.469 64.9889 200.565 66.4273 203.987 66.4273" fill="#5467F5"/>
    <path d="M191.57 53.6455H223.705V66.4602H202.228C196.361 66.4602 191.57 60.7067 191.57 53.6455Z" fill="#5467F5"/>
    <path d="M210.017 13.1091C210.734 13.1091 211.32 13.6975 211.32 14.4494V66.4273C211.32 66.46 211.353 66.46 211.353 66.46H223.672C223.705 66.46 223.705 66.4273 223.705 66.4273V13.1091C223.705 10.9188 223.184 8.82665 222.238 7.02868C222.108 6.76715 221.945 6.50563 221.782 6.2441C221.293 5.45953 220.739 4.70765 220.087 4.05384C217.839 1.73282 214.743 0.294434 211.32 0.294434" fill="#5467F5"/>
    <path d="M223.738 13.1091H191.603V0.294434H213.081C218.947 0.294434 223.738 6.01527 223.738 13.1091Z" fill="#5467F5"/>
    <path d="M274.841 53.6453C274.124 53.6453 273.537 53.0569 273.537 52.305V0.327124C273.537 0.294434 273.504 0.294434 273.504 0.294434H261.185C261.152 0.294434 261.152 0.327124 261.152 0.327124V53.6126C261.152 55.8029 261.674 57.8951 262.619 59.6931C262.749 59.9546 262.912 60.2161 263.075 60.4776C263.564 61.2622 264.118 62.0141 264.77 62.6679C267.019 64.9889 270.115 66.4273 273.537 66.4273" fill="#5467F5"/>
    <path d="M261.152 53.6455H300.229V66.4602H271.81C265.911 66.4602 261.152 60.7067 261.152 53.6455Z" fill="#5467F5"/>
    <path d="M357.492 66.4273H345.009V23.9623C345.009 21.7721 343.249 20.0068 341.066 20.0068C338.882 20.0068 337.122 21.7721 337.122 23.9623V66.4273H324.64V23.9623C324.64 14.8744 332.005 7.48633 341.066 7.48633C350.126 7.48633 357.492 14.8744 357.492 23.9623V66.4273Z" fill="#5467F5"/>
    <path d="M361.533 0H322.456V12.5205H361.533V0Z" fill="#5467F5"/>
    <path d="M315.905 0.294434H303.423V66.46H315.905V0.294434Z" fill="#5467F5"/>
    <path d="M247.138 30.3694H240.555C239.936 30.3694 239.447 30.8598 239.447 31.4809H227.062C227.062 24.0275 233.124 17.947 240.555 17.947H247.138V30.3694Z" fill="#5467F5"/>
    <path d="M239.447 0.327148V66.4273H227.062V0.327148H239.447Z" fill="#5467F5"/>
    <path d="M255.221 0.294434H242.738V66.46H255.221V0.294434Z" fill="#5467F5"/>
    <path d="M360.522 17.9797H368.475C375.905 17.9797 381.967 24.0602 381.967 31.5136H369.583C369.583 30.8925 369.094 30.4021 368.475 30.4021H360.522V17.9797Z" fill="#5467F5"/>
    <path d="M382 0.327148V66.4273H369.615V0.327148H382Z" fill="#5467F5"/>
  </g>
  <defs>
    <linearGradient id="paint0_linear" x1="129.678" y1="66.7556" x2="129.678" y2="10.2291" gradientUnits="userSpaceOnUse">
      <stop offset="0.612" stop-opacity="0"/>
      <stop offset="0.9558" stop-opacity="0.2"/>
    </linearGradient>
    <linearGradient id="paint1_linear" x1="33.1285" y1="58.2646" x2="71.8376" y2="58.2646" gradientUnits="userSpaceOnUse">
      <stop offset="0.1996" stop-opacity="0"/>
      <stop offset="0.92" stop-opacity="0.2"/>
    </linearGradient>
    <linearGradient id="paint2_linear" x1="128.049" y1="72.6642" x2="128.049" y2="138.535" gradientUnits="userSpaceOnUse">
      <stop offset="0.4454" stop-opacity="0"/>
      <stop offset="0.863" stop-opacity="0.2"/>
    </linearGradient>
    <linearGradient id="paint3_linear" x1="118.899" y1="129.75" x2="184.095" y2="129.75" gradientUnits="userSpaceOnUse">
      <stop offset="0.4454" stop-opacity="0"/>
      <stop offset="0.863" stop-opacity="0.2"/>
    </linearGradient>
    <linearGradient id="paint4_linear" x1="175.799" y1="138.935" x2="175.799" y2="73.5336" gradientUnits="userSpaceOnUse">
      <stop offset="0.4454" stop-opacity="0"/>
      <stop offset="0.863" stop-opacity="0.2"/>
    </linearGradient>
    <linearGradient id="paint5_linear" x1="184.956" y1="81.855" x2="119.753" y2="81.855" gradientUnits="userSpaceOnUse">
      <stop offset="0.4454" stop-opacity="0"/>
      <stop offset="0.863" stop-opacity="0.2"/>
    </linearGradient>
    <linearGradient id="paint6_linear" x1="94.7824" y1="8.92058" x2="173.886" y2="8.92058" gradientUnits="userSpaceOnUse">
      <stop offset="0.561" stop-opacity="0"/>
      <stop offset="1" stop-opacity="0.2"/>
    </linearGradient>
    <clipPath id="clip0">
      <rect width="382" height="139" fill="white"/>
    </clipPath>
  </defs>
</svg>
